<svg width="382" height="432" viewBox="0 0 382 432" fill="none" xmlns="http://www.w3.org/2000/svg">
<path fill-rule="evenodd" clip-rule="evenodd" d="M278.693 37.1342C323.754 31.2236 367.629 -13.5981 408.904 5.42075C449.124 23.9534 444.894 83.8948 465.374 123.154C484.807 160.408 535.065 189.774 526.534 230.917C517.455 274.705 454.93 281.998 425.463 315.641C403.461 340.761 403.934 381.485 377.167 401.452C349.639 421.987 312.782 420.939 278.693 425.125C240.481 429.817 202.959 434.934 165.189 427.48C116.389 417.85 58.6424 414.802 27.9739 375.646C-2.49308 336.748 -7.49834 276.637 11.2303 230.917C29.7122 185.799 93.3399 179.561 123.87 141.544C147.835 111.702 135.084 58.5755 166.818 37.1748C198.27 15.9639 241.077 42.0682 278.693 37.1342Z" fill="#979191"/>
</svg>
