<svg width="499" height="206" viewBox="0 0 499 206" fill="none" xmlns="http://www.w3.org/2000/svg">
<g filter="url(#filter0_f_111_217)">
<path fill-rule="evenodd" clip-rule="evenodd" d="M103.762 -269.415C174.869 -284.207 249.529 -318.515 316.641 -294.98C385.55 -270.815 414.486 -207.263 439.439 -151.699C464.891 -95.0226 491.035 -31.496 459.585 23.3226C428.926 76.7628 353.739 107.851 281.417 123.738C222.242 136.738 165.201 99.6617 103.762 101.489C38.0184 103.444 -23.087 153.916 -84.0299 134.606C-145.695 115.068 -170.303 57.1531 -191.399 7.96866C-212.645 -41.5674 -234.506 -98.1581 -203.773 -144.576C-173.883 -189.721 -97.76 -197.327 -39.9323 -220.801C7.53899 -240.072 52.0441 -258.656 103.762 -269.415Z" fill="url(#paint0_linear_111_217)"/>
</g>
<path fill-rule="evenodd" clip-rule="evenodd" d="M-3.90266 -180.089C46.3282 -183.367 90.6994 -234.191 138.772 -219.261C186.913 -204.31 214.578 -152.433 234.391 -106.08C253.912 -60.4132 263.688 -8.37323 249.227 39.1394C235.531 84.1407 194.175 112.822 158.453 143.427C127.449 169.99 96.2104 201.828 55.5147 205.102C16.5843 208.234 -11.6176 166.656 -50.1376 160.207C-97.0858 152.347 -152.865 193.78 -189.999 163.998C-225.332 135.659 -199.348 76.4386 -209.592 32.3184C-221.168 -17.5431 -269.494 -62.6773 -253.948 -111.447C-238.547 -159.763 -183.996 -187.968 -135.094 -201.393C-91.488 -213.363 -49.0258 -177.145 -3.90266 -180.089Z" fill="url(#paint1_linear_111_217)"/>
<path fill-rule="evenodd" clip-rule="evenodd" d="M103.762 -269.415C174.869 -284.207 249.529 -318.515 316.641 -294.98C385.55 -270.815 414.486 -207.263 439.439 -151.699C464.891 -95.0226 491.035 -31.496 459.585 23.3226C428.926 76.7628 353.739 107.851 281.417 123.738C222.242 136.738 165.201 99.6617 103.762 101.489C38.0184 103.444 -23.087 153.916 -84.0299 134.606C-145.695 115.068 -170.303 57.1531 -191.399 7.96866C-212.645 -41.5674 -234.506 -98.1581 -203.773 -144.576C-173.883 -189.721 -97.76 -197.327 -39.9323 -220.801C7.53899 -240.072 52.0441 -258.656 103.762 -269.415Z" fill="url(#paint2_linear_111_217)"/>
<defs>
<filter id="filter0_f_111_217" x="-244" y="-328" width="743" height="492" filterUnits="userSpaceOnUse" color-interpolation-filters="sRGB">
<feFlood flood-opacity="0" result="BackgroundImageFix"/>
<feBlend mode="normal" in="SourceGraphic" in2="BackgroundImageFix" result="shape"/>
<feGaussianBlur stdDeviation="12.5" result="effect1_foregroundBlur_111_217"/>
</filter>
<linearGradient id="paint0_linear_111_217" x1="-113.273" y1="-82" x2="113.247" y2="68.3269" gradientUnits="userSpaceOnUse">
<stop stop-color="#72B01D"/>
<stop offset="1" stop-color="#A7D963"/>
</linearGradient>
<linearGradient id="paint1_linear_111_217" x1="61.3642" y1="-52.6574" x2="-138.836" y2="137.759" gradientUnits="userSpaceOnUse">
<stop stop-color="#6BA51B"/>
<stop offset="1" stop-color="#87DE0F" stop-opacity="0"/>
</linearGradient>
<linearGradient id="paint2_linear_111_217" x1="-113.273" y1="-82" x2="113.247" y2="68.3269" gradientUnits="userSpaceOnUse">
<stop stop-color="#72B01D"/>
<stop offset="1" stop-color="#A7D963"/>
</linearGradient>
</defs>
</svg>
