<svg width="476" height="524" viewBox="0 0 476 524" fill="none" xmlns="http://www.w3.org/2000/svg">
<g filter="url(#filter0_f_111_121)">
<path fill-rule="evenodd" clip-rule="evenodd" d="M138.719 66.0194C198.718 60.804 253.795 18.4423 311.447 33.0468C370.852 48.0954 416 93.7881 437.44 141.692C458.33 188.367 434.724 238.384 425.335 287.509C416.078 335.945 435.189 403.717 382.848 427.333C323.799 453.976 254.468 381.186 188.966 394.157C129.07 406.018 114.432 486.549 53.2609 492.598C-5.61592 498.419 -57.7389 457.757 -98.7665 422.607C-141.11 386.329 -187.377 341.483 -181.491 291.474C-175.598 241.402 -101.375 218.607 -69.6875 175.55C-43.1553 139.498 -55.2111 83.8735 -11.9982 61.1624C31.2203 38.4484 87.6871 70.4554 138.719 66.0194Z" fill="url(#paint0_linear_111_121)"/>
</g>
<path fill-rule="evenodd" clip-rule="evenodd" d="M138.719 66.0194C198.718 60.804 253.795 18.4423 311.447 33.0468C370.852 48.0954 416 93.7881 437.44 141.692C458.33 188.367 434.724 238.384 425.335 287.509C416.078 335.945 435.189 403.717 382.848 427.333C323.799 453.976 254.468 381.186 188.966 394.157C129.07 406.018 114.432 486.549 53.2609 492.598C-5.61592 498.419 -57.7389 457.757 -98.7665 422.607C-141.11 386.329 -187.377 341.483 -181.491 291.474C-175.598 241.402 -101.375 218.607 -69.6875 175.55C-43.1553 139.498 -55.2111 83.8735 -11.9982 61.1624C31.2203 38.4484 87.6871 70.4554 138.719 66.0194Z" fill="url(#paint1_linear_111_121)"/>
<defs>
<filter id="filter0_f_111_121" x="-212" y="0" width="687.819" height="523.158" filterUnits="userSpaceOnUse" color-interpolation-filters="sRGB">
<feFlood flood-opacity="0" result="BackgroundImageFix"/>
<feBlend mode="normal" in="SourceGraphic" in2="BackgroundImageFix" result="shape"/>
<feGaussianBlur stdDeviation="15" result="effect1_foregroundBlur_111_121"/>
</filter>
<linearGradient id="paint0_linear_111_121" x1="-348.165" y1="261.579" x2="415.744" y2="404.06" gradientUnits="userSpaceOnUse">
<stop stop-color="#04584F"/>
<stop offset="1" stop-color="#B6D7D3"/>
</linearGradient>
<linearGradient id="paint1_linear_111_121" x1="-348.165" y1="261.579" x2="415.744" y2="404.06" gradientUnits="userSpaceOnUse">
<stop stop-color="#04584F"/>
<stop offset="1" stop-color="#B6D7D3"/>
</linearGradient>
</defs>
</svg>
