<svg width="392" height="498" viewBox="0 0 392 498" fill="none" xmlns="http://www.w3.org/2000/svg">
<g filter="url(#filter0_d_111_78)">
<mask id="mask0_111_78" style="mask-type:alpha" maskUnits="userSpaceOnUse" x="10" y="6" width="457" height="478">
<path fill-rule="evenodd" clip-rule="evenodd" d="M278.664 25.8805C328.037 23.2521 382.422 -11.1239 423.091 16.9959C463.687 45.0663 460.333 105.989 465.509 155.073C469.715 194.965 463.681 233.749 449.919 271.427C436.623 307.829 412.646 336.502 388.246 366.61C353.894 408.998 332.894 476.76 278.664 482.744C225.36 488.626 194.071 423.427 149.98 392.901C104.398 361.343 36.2497 352.752 16.2295 301.053C-3.85847 249.178 28.9977 192.644 52.9973 142.459C74.2113 98.0994 101.306 54.3692 144.993 31.8009C185.612 10.8169 233.009 28.311 278.664 25.8805Z" fill="#FDFAF4"/>
</mask>
<g mask="url(#mask0_111_78)">
<rect x="8.39795" y="-36.8572" width="440.602" height="579.7" fill="url(#paint0_linear_111_78)"/>
</g>
</g>
<defs>
<filter id="filter0_d_111_78" x="0" y="0" width="459" height="497.117" filterUnits="userSpaceOnUse" color-interpolation-filters="sRGB">
<feFlood flood-opacity="0" result="BackgroundImageFix"/>
<feColorMatrix in="SourceAlpha" type="matrix" values="0 0 0 0 0 0 0 0 0 0 0 0 0 0 0 0 0 0 127 0" result="hardAlpha"/>
<feOffset dy="4"/>
<feGaussianBlur stdDeviation="5"/>
<feComposite in2="hardAlpha" operator="out"/>
<feColorMatrix type="matrix" values="0 0 0 0 0 0 0 0 0 0 0 0 0 0 0 0 0 0 0.25 0"/>
<feBlend mode="normal" in2="BackgroundImageFix" result="effect1_dropShadow_111_78"/>
<feBlend mode="normal" in="SourceGraphic" in2="effect1_dropShadow_111_78" result="shape"/>
</filter>
<linearGradient id="paint0_linear_111_78" x1="64.5" y1="-244" x2="152" y2="253" gradientUnits="userSpaceOnUse">
<stop stop-color="#B6D7D3"/>
<stop offset="1" stop-color="#FDFAF4"/>
</linearGradient>
</defs>
</svg>
