<svg width="445" height="598" viewBox="0 0 445 598" fill="none" xmlns="http://www.w3.org/2000/svg">
<path fill-rule="evenodd" clip-rule="evenodd" d="M223.523 221.251C260.552 226.412 291.021 252.425 317.632 278.687C340.346 301.104 345.175 334.889 364.446 360.326C387.34 390.545 430.289 405.357 441.121 441.688C452.42 479.582 436.109 519.562 423.052 556.887C407.873 600.281 399.935 655.412 359.024 676.382C317.804 697.51 269.746 662.15 223.523 659.161C180.969 656.409 137.17 675.814 97.7756 659.489C56.8501 642.53 18.5672 610.211 4.24059 568.291C-9.8007 527.206 14.8101 484.26 23.3394 441.688C30.2515 407.188 34.8016 373.208 49.711 341.338C65.6555 307.255 81.9833 271.544 112.941 250.155C144.83 228.123 185.135 215.9 223.523 221.251Z" fill="#A8A2A2"/>
<g filter="url(#filter0_d_111_66)">
<path fill-rule="evenodd" clip-rule="evenodd" d="M81.3892 31.5721C115.746 35.964 151.02 38.7239 180.222 57.3494C208.846 75.606 231.829 103.062 243.475 134.952C254.361 164.762 248.095 197.253 242.736 228.533C238.05 255.885 220.943 278.323 214.295 305.266C204.489 345.003 219.261 391.783 194.425 424.316C168.554 458.204 123.561 473.093 81.3892 479.359C35.9419 486.111 -13.4009 484.597 -52.8591 461.057C-92.1737 437.604 -127.11 397.38 -132.278 351.893C-137.418 306.654 -75.3385 273.893 -79.2756 228.533C-83.8472 175.862 -166.78 143.654 -154.822 92.1557C-144.349 47.0472 -78.051 41.5727 -33.1944 30.0679C4.44711 20.4136 42.843 26.6446 81.3892 31.5721Z" fill="#B9B4B4"/>
</g>
<defs>
<filter id="filter0_d_111_66" x="-181" y="0" width="455.461" height="507.851" filterUnits="userSpaceOnUse" color-interpolation-filters="sRGB">
<feFlood flood-opacity="0" result="BackgroundImageFix"/>
<feColorMatrix in="SourceAlpha" type="matrix" values="0 0 0 0 0 0 0 0 0 0 0 0 0 0 0 0 0 0 127 0" result="hardAlpha"/>
<feOffset/>
<feGaussianBlur stdDeviation="12.5"/>
<feComposite in2="hardAlpha" operator="out"/>
<feColorMatrix type="matrix" values="0 0 0 0 0.72549 0 0 0 0 0.705882 0 0 0 0 0.705882 0 0 0 1 0"/>
<feBlend mode="normal" in2="BackgroundImageFix" result="effect1_dropShadow_111_66"/>
<feBlend mode="normal" in="SourceGraphic" in2="effect1_dropShadow_111_66" result="shape"/>
</filter>
</defs>
</svg>
