<svg width="669" height="959" viewBox="0 0 669 959" fill="none" xmlns="http://www.w3.org/2000/svg">
<path fill-rule="evenodd" clip-rule="evenodd" d="M449.395 503.28C497.863 496.503 545.418 517.821 587.23 539.525C629.604 561.521 659.987 593.902 689.251 627.787C725.184 669.395 783.501 708.413 777.266 759.571C771.053 810.552 703.135 837.3 659.371 872.956C619.638 905.327 588.015 956.339 532.774 958.763C476.321 961.241 440.181 909.391 391.873 884.697C357.967 867.364 325.091 852.541 291.155 835.25C239.918 809.143 149.8 807.056 141.553 757.149C133.288 707.135 219.804 684.646 260.079 647.201C286.698 622.453 308.733 596.726 338.169 574.348C373.425 547.546 402.516 509.834 449.395 503.28Z" fill="url(#paint0_linear_111_124)"/>
<g filter="url(#filter0_f_111_124)">
<path fill-rule="evenodd" clip-rule="evenodd" d="M293.867 165.033C376.783 164.126 461.049 181.566 526.247 226.829C590.057 271.129 655.826 337.624 644.777 408.649C633.488 481.211 528.204 505.532 474.238 561.139C447.573 588.615 435.166 622.011 409.998 650.567C373.338 692.162 348.882 745.371 293.867 765.791C225.059 791.331 125.958 823.379 75.6734 774.659C21.7117 722.376 86.0683 638.65 89.6936 567.971C91.7332 528.207 95.0932 491.225 92.2492 451.5C86.8565 376.174 20.519 295.966 65.6314 231.869C109.012 170.232 211.713 165.932 293.867 165.033Z" fill="url(#paint1_linear_111_124)"/>
</g>
<path fill-rule="evenodd" clip-rule="evenodd" d="M293.867 165.033C376.783 164.126 461.049 181.566 526.247 226.829C590.057 271.129 655.826 337.624 644.777 408.649C633.488 481.211 528.204 505.532 474.238 561.139C447.573 588.615 435.166 622.011 409.998 650.567C373.338 692.162 348.882 745.371 293.867 765.791C225.059 791.331 125.958 823.379 75.6734 774.659C21.7117 722.376 86.0683 638.65 89.6936 567.971C91.7332 528.207 95.0932 491.225 92.2492 451.5C86.8565 376.174 20.519 295.966 65.6314 231.869C109.012 170.232 211.713 165.932 293.867 165.033Z" fill="url(#paint2_linear_111_124)"/>
<path fill-rule="evenodd" clip-rule="evenodd" d="M613.18 260.426C664.205 242.495 712.152 299.212 753.825 331.807C791.231 361.064 816.428 398.689 840.437 438.175C866.573 481.161 915.296 524.997 900.013 572.241C884.308 620.789 815.262 631.742 769.017 658.947C736.342 678.168 706.766 702.654 668.54 708.411C632.7 713.808 599.755 693.933 563.709 689.866C518.207 684.734 465.096 707.875 429.285 681.422C393.987 655.347 395.224 605.136 392.562 563.44C390.069 524.384 380.826 491.576 407.686 461.34C433.207 423.508 411.463 400.974 440.049 373.658C514.598 333.398 573.641 305.169 613.18 260.426Z" fill="#36AA72"/>
<path fill-rule="evenodd" clip-rule="evenodd" d="M642.097 41.9108C692.328 38.6335 736.699 -12.1914 784.772 2.73886C832.913 17.6904 860.578 69.5673 880.391 115.92C899.912 161.587 909.688 213.627 895.227 261.139C881.531 306.141 840.175 334.822 804.453 365.427C773.449 391.99 742.21 423.828 701.515 427.102C662.584 430.234 634.382 388.656 595.862 382.207C548.914 374.347 493.135 415.78 456.001 385.998C420.668 357.659 446.652 298.439 436.408 254.318C424.832 204.457 376.506 159.323 392.052 110.553C407.453 62.2369 462.004 34.0318 510.906 20.6074C554.512 8.6368 596.974 44.8549 642.097 41.9108Z" fill="url(#paint3_linear_111_124)"/>
<path fill-rule="evenodd" clip-rule="evenodd" d="M526.426 139.429C573.631 121.484 617.987 178.244 656.54 210.863C691.145 240.142 714.456 277.795 736.666 317.311C760.846 360.329 805.921 404.198 791.782 451.477C777.253 500.061 713.376 511.022 670.594 538.247C640.366 557.483 613.005 581.987 577.641 587.748C544.484 593.15 514.006 573.259 480.659 569.19C438.564 564.053 389.43 587.212 356.3 560.739C323.645 534.645 324.79 484.397 322.327 442.669C320.021 403.584 317.799 359.654 342.647 329.396C366.786 300.003 420.959 317.7 447.404 290.365C487.707 248.705 472.244 160.025 526.426 139.429Z" fill="url(#paint4_linear_111_124)"/>
<defs>
<filter id="filter0_f_111_124" x="0" y="115" width="696" height="735" filterUnits="userSpaceOnUse" color-interpolation-filters="sRGB">
<feFlood flood-opacity="0" result="BackgroundImageFix"/>
<feBlend mode="normal" in="SourceGraphic" in2="BackgroundImageFix" result="shape"/>
<feGaussianBlur stdDeviation="25" result="effect1_foregroundBlur_111_124"/>
</filter>
<linearGradient id="paint0_linear_111_124" x1="521.833" y1="512.537" x2="459.364" y2="958.849" gradientUnits="userSpaceOnUse">
<stop stop-color="#04584F"/>
<stop offset="1" stop-color="#B6D7D3"/>
</linearGradient>
<linearGradient id="paint1_linear_111_124" x1="310.715" y1="326.852" x2="319.731" y2="851.538" gradientUnits="userSpaceOnUse">
<stop stop-color="#72B01D"/>
<stop offset="1" stop-color="#3EAA9E"/>
</linearGradient>
<linearGradient id="paint2_linear_111_124" x1="310.715" y1="326.852" x2="319.731" y2="851.538" gradientUnits="userSpaceOnUse">
<stop stop-color="#72B01D"/>
<stop offset="1" stop-color="#3EAA9E"/>
</linearGradient>
<linearGradient id="paint3_linear_111_124" x1="707.364" y1="169.343" x2="507.164" y2="359.759" gradientUnits="userSpaceOnUse">
<stop stop-color="#6BA51B"/>
<stop offset="1" stop-color="#87DE0F" stop-opacity="0"/>
</linearGradient>
<linearGradient id="paint4_linear_111_124" x1="654.417" y1="164.976" x2="486.956" y2="571.399" gradientUnits="userSpaceOnUse">
<stop stop-color="#649B19"/>
<stop offset="0.463542" stop-color="#599902" stop-opacity="0.5"/>
<stop offset="1" stop-color="#589900" stop-opacity="0"/>
</linearGradient>
</defs>
</svg>
