<svg width="72" height="72" viewBox="0 0 72 72" fill="none" xmlns="http://www.w3.org/2000/svg">
<path d="M10.5831 64.1942L4.92773 0.760498H67.0727L61.4117 64.1846L35.9625 71.2401L10.5831 64.1942Z" fill="#5F5050"/>
<path d="M36.0005 65.8474L56.5649 60.1459L61.403 5.94678H36.0005V65.8474Z" fill="#705E5E"/>
<path d="M36.0005 28.9288H46.2954L47.0064 20.9621H36.0005V13.1821H55.5091L55.3224 15.2696L53.4099 36.7087H36.0005V28.9288Z" fill="white"/>
<path d="M36.0465 49.1339L36.0122 49.144L27.348 46.8045L26.794 40.5996H18.9854L20.0749 52.8154L36.0111 57.2384L36.0465 57.2282V49.1339Z" fill="#EBEBEB"/>
<path d="M45.6338 36.3796L44.6967 46.7983L36.0195 49.1405V57.2349L51.9687 52.8148L52.0857 51.5002L53.439 36.3796H45.6338Z" fill="white"/>
<path d="M36.0269 13.1821V20.9621H17.2349L17.0791 19.2138L16.7248 15.2696L16.5386 13.1821H36.0269ZM36.0005 28.9299V36.7098H27.4454L27.2896 34.9616L26.9347 31.0173L26.7491 28.9299H36.0005Z" fill="#EBEBEB"/>
</svg>
