<svg width="72" height="72" viewBox="0 0 72 72" fill="none" xmlns="http://www.w3.org/2000/svg">
<path d="M10.7084 64.0553L5.08057 0.934326H66.9196L61.2856 64.0457L35.9624 71.0657L10.7084 64.0553Z" fill="#5F5050"/>
<path d="M36 65.7L56.4626 60.0266L61.2771 6.09521H36V65.7Z" fill="#705E5E"/>
<path d="M35.9998 29.5059H25.7556L25.048 21.578H35.9998V13.8369H16.5874L16.773 15.9137L18.6754 37.2476H35.9998V29.5059ZM35.9998 49.6114L35.9655 49.6209L27.3441 47.2922L26.7934 41.1187H19.0213L20.1058 53.2738L35.9644 57.6759L35.9998 57.6664V49.6114Z" fill="#EBEBEB"/>
<path d="M35.9731 29.5059V37.2476H45.5058L44.6075 47.2877L35.9731 49.6181V57.6725L51.8441 53.2738L51.9605 51.966L53.7796 31.5849L53.9681 29.5059H51.8823H35.9731ZM35.9731 13.8369V21.578H54.6729L54.8281 19.8388L55.1814 15.9137L55.3665 13.8369H35.9731Z" fill="white"/>
</svg>
