<svg width="72" height="72" viewBox="0 0 72 72" fill="none" xmlns="http://www.w3.org/2000/svg">
<g clip-path="url(#clip0_111_90)">
<path d="M0.791992 0.791992H71.208V71.2086H0.791992V0.791992Z" fill="#5F5050"/>
<path d="M65.4451 54.414C64.9293 51.2016 62.8346 48.5032 56.6296 45.9872C54.4741 44.9966 52.0711 44.2873 51.3551 42.6538C51.1008 41.7032 51.0671 41.1677 51.2279 40.5922C51.6898 38.7247 53.9189 38.1426 55.6858 38.6781C56.8237 39.0594 57.9009 39.9364 58.5506 41.3353C61.5892 39.3677 61.583 39.3806 63.7048 38.0284C62.9279 36.8241 62.5134 36.2683 62.0049 35.7531C60.1773 33.7117 57.6871 32.6604 53.7046 32.7409L51.6301 33.0092C49.6423 33.5115 47.7478 34.5549 46.6368 35.9539C43.3034 39.7361 44.2541 46.3556 48.3103 49.0798C52.3063 52.0791 58.1765 52.7614 58.9263 55.566C59.6559 58.9995 56.4029 60.111 53.1697 59.7161C50.7869 59.2206 49.4617 58.0095 48.029 55.8073C45.392 57.3334 45.392 57.3334 42.6808 58.8926C43.3237 60.2983 43.9993 60.9345 45.077 62.1523C50.1778 67.3262 62.942 67.0719 65.2314 59.2408C65.3242 58.9719 65.9407 57.1787 65.4451 54.414ZM39.0723 33.1554H32.486L32.459 50.1834C32.459 53.8048 32.6463 57.1247 32.0574 58.1422C31.0938 60.1436 28.5969 59.8956 27.4589 59.5074C26.3008 58.9382 25.7118 58.1287 25.0295 56.9846C24.8422 56.6561 24.7016 56.4019 24.6543 56.3822L19.2993 59.6616C20.1898 61.4891 21.5015 63.0754 23.1817 64.1059C25.6916 65.6122 29.0649 66.0741 32.5929 65.2641C34.889 64.5952 36.8701 63.2098 37.9074 61.101C39.407 58.3363 39.0853 54.99 39.0718 51.2887C39.1055 45.2503 39.0723 39.213 39.0723 33.1554Z" fill="#3D3434"/>
</g>
<defs>
<clipPath id="clip0_111_90">
<rect width="72" height="72" fill="white"/>
</clipPath>
</defs>
</svg>
