<svg width="72" height="72" viewBox="0 0 72 72" fill="none" xmlns="http://www.w3.org/2000/svg">
<path d="M35.9999 42.4125C39.5414 42.4125 42.4124 39.5416 42.4124 36C42.4124 32.4585 39.5414 29.5875 35.9999 29.5875C32.4584 29.5875 29.5874 32.4585 29.5874 36C29.5874 39.5416 32.4584 42.4125 35.9999 42.4125Z" fill="#5F5050"/>
<path d="M60.3564 25.425C59.1189 24.975 57.8251 24.525 56.4751 24.1313C56.8126 22.7813 57.0939 21.4313 57.3189 20.1375C58.5001 12.7125 57.2064 7.48127 53.6064 5.45627C52.5376 4.83752 51.3564 4.55627 50.0064 4.55627C46.0689 4.55627 41.0626 7.48127 36.0001 12.375C30.9376 7.48127 25.9313 4.55627 21.9938 4.55627C20.6438 4.55627 19.4626 4.83752 18.3939 5.45627C14.7938 7.53752 13.5001 12.7688 14.6813 20.1375C14.9063 21.4313 15.1876 22.7813 15.5251 24.1313C14.1751 24.525 12.8813 24.9188 11.6438 25.425C4.6126 28.125 0.787598 31.8375 0.787598 36C0.787598 40.1625 4.66885 43.875 11.6438 46.575C12.8813 47.025 14.1751 47.475 15.5251 47.8688C15.1876 49.2188 14.9063 50.5688 14.6813 51.8625C13.5001 59.2875 14.7938 64.5188 18.3939 66.5438C19.4626 67.1625 20.6438 67.4438 21.9938 67.4438C25.9876 67.4438 30.9939 64.5188 36.0001 59.625C41.0626 64.5188 46.0689 67.4438 50.0064 67.4438C51.3564 67.4438 52.5376 67.1625 53.6064 66.5438C57.2064 64.4625 58.5001 59.2313 57.3189 51.8625C57.0939 50.5688 56.8126 49.2188 56.4751 47.8688C57.8251 47.475 59.1189 47.0813 60.3564 46.575C67.3876 43.875 71.2126 40.1625 71.2126 36C71.2126 31.8375 67.3876 28.125 60.3564 25.425ZM52.0314 8.26877C54.3376 9.61877 55.1251 13.7813 54.1689 19.6875C54.0001 20.8688 53.7189 22.1063 53.3814 23.4C50.4564 22.725 47.3626 22.275 44.1001 21.9938C42.1876 19.2938 40.2188 16.875 38.2501 14.6813C42.4126 10.575 46.6314 7.76252 50.0626 7.76252C50.7939 7.76252 51.4689 7.93127 52.0314 8.26877ZM45.7314 41.625C44.7189 43.425 43.5376 45.225 42.3001 47.025C40.2188 47.1938 38.1376 47.25 36.0001 47.25C33.8064 47.25 31.7251 47.1938 29.7001 47.025C28.4626 45.225 27.3376 43.425 26.3251 41.625C25.2563 39.7688 24.2438 37.8563 23.3438 36C24.2438 34.1438 25.2563 32.2313 26.3251 30.375C27.3376 28.575 28.5189 26.775 29.7564 24.975C31.8376 24.8063 33.9188 24.75 36.0564 24.75C38.2501 24.75 40.3314 24.8063 42.3564 24.975C43.5939 26.775 44.7189 28.575 45.7314 30.375C46.8001 32.2313 47.8126 34.1438 48.7126 36C47.7564 37.8563 46.8001 39.7125 45.7314 41.625ZM50.4001 39.7688C51.2439 41.7375 51.9189 43.65 52.5376 45.5625C50.6251 46.0125 48.6001 46.35 46.4626 46.6313C47.1376 45.5625 47.8689 44.4375 48.4876 43.2563C49.1626 42.075 49.7814 40.8938 50.4001 39.7688ZM36.0001 55.0125C34.6501 53.55 33.3563 51.975 32.1188 50.3438C33.4126 50.4 34.7064 50.4563 36.0001 50.4563C37.2938 50.4563 38.5876 50.4 39.8814 50.3438C38.6439 51.975 37.3501 53.55 36.0001 55.0125ZM25.5376 46.575C23.4001 46.2938 21.3751 45.9563 19.4626 45.5063C20.0813 43.65 20.7563 41.6813 21.6001 39.7125C22.2188 40.8375 22.8376 42.0188 23.5126 43.1438C24.1876 44.3813 24.8626 45.45 25.5376 46.575ZM21.6001 32.2313C20.7563 30.2625 20.0813 28.35 19.4626 26.4375C21.3751 25.9875 23.4001 25.65 25.5376 25.3688C24.8626 26.4375 24.1313 27.5625 23.5126 28.7438C22.8376 29.925 22.2188 31.1063 21.6001 32.2313ZM36.0001 16.9875C37.3501 18.45 38.6439 20.025 39.8814 21.6563C38.5876 21.6 37.2938 21.5438 36.0001 21.5438C34.7064 21.5438 33.4126 21.6 32.1188 21.6563C33.3563 20.025 34.6501 18.45 36.0001 16.9875ZM48.4876 28.8L46.4626 25.425C48.6001 25.7063 50.6251 26.0438 52.5376 26.4938C51.9189 28.35 51.2439 30.3188 50.4001 32.2875C49.7814 31.1063 49.1626 29.925 48.4876 28.8ZM17.8314 19.6875C16.8751 13.7813 17.6626 9.61877 19.9688 8.26877C20.5313 7.93127 21.2063 7.76252 21.9376 7.76252C25.3126 7.76252 29.5313 10.5188 33.7501 14.6813C31.7813 16.8188 29.8126 19.2938 27.9001 21.9938C24.6376 22.275 21.5438 22.7813 18.6188 23.4C18.2813 22.1063 18.0564 20.8688 17.8314 19.6875ZM3.9376 36C3.9376 33.3563 7.14385 30.5438 12.7688 28.4625C13.8938 28.0125 15.1313 27.6188 16.3688 27.2813C17.2689 30.0938 18.3938 33.075 19.7438 36.0563C18.3938 39.0375 17.2126 41.9625 16.3688 44.775C8.60635 42.525 3.9376 39.15 3.9376 36ZM19.9688 63.7313C17.6626 62.3813 16.8751 58.2188 17.8314 52.3125C18.0001 51.1313 18.2813 49.8938 18.6188 48.6C21.5438 49.275 24.6376 49.725 27.9001 50.0063C29.8126 52.7063 31.7813 55.125 33.7501 57.3188C29.5876 61.425 25.3688 64.2375 21.9376 64.2375C21.2063 64.2375 20.5313 64.0688 19.9688 63.7313ZM54.1689 52.3125C55.1251 58.2188 54.3376 62.3813 52.0314 63.7313C51.4689 64.0688 50.7939 64.2375 50.0626 64.2375C46.6876 64.2375 42.4689 61.4813 38.2501 57.3188C40.2188 55.1813 42.1876 52.7063 44.1001 50.0063C47.3626 49.725 50.4564 49.2188 53.3814 48.6C53.7189 49.8938 53.9439 51.1313 54.1689 52.3125ZM59.2314 43.5375C58.1064 43.9875 56.8689 44.3813 55.6314 44.7188C54.7314 41.9063 53.6064 38.925 52.2564 35.9438C53.6064 32.9625 54.7876 30.0375 55.6314 27.225C63.3939 29.475 68.0626 32.85 68.0626 36C68.0626 38.6438 64.8001 41.4563 59.2314 43.5375Z" fill="#5F5050"/>
</svg>
