<svg width="72" height="72" viewBox="0 0 72 72" fill="none" xmlns="http://www.w3.org/2000/svg">
<path fill-rule="evenodd" clip-rule="evenodd" d="M0.685547 31.5877C0.685547 31.9832 0.801984 32.2442 0.867234 32.4979C1.29248 34.1477 2.20655 35.5635 3.29105 36.855C4.83567 38.6955 6.72736 40.1771 8.66517 41.5704C10.3459 42.7787 12.061 43.9599 13.7485 45.1592C14.0382 45.3651 14.3121 45.6019 14.6265 45.8544C14.356 46.0007 14.131 46.1295 13.897 46.2482C11.67 47.3777 9.52748 48.6439 7.55255 50.1778C6.3623 51.1026 5.21142 52.0852 4.39861 53.3694C3.0908 55.4349 2.62786 57.6354 3.60267 59.985C3.8873 60.6712 4.32155 61.2641 4.93411 61.7023C5.13267 61.8441 5.35542 61.9847 5.58773 62.0398C6.18286 62.1799 6.78923 62.2716 7.39167 62.3824L9.09773 62.3813C10.9844 62.2131 12.7017 61.5667 14.2536 60.4957C16.6791 58.8217 18.3132 56.5774 19.0157 53.6968C19.5265 51.6032 19.5473 49.5073 18.9454 47.4232C18.8878 47.2302 18.8214 47.0398 18.7463 46.8529C18.6732 46.6656 18.5871 46.4833 18.4859 46.2499L22.3536 44.0257L22.4115 44.0753C22.3412 44.3053 22.2664 44.5348 22.2029 44.7671C21.7433 46.4456 21.4379 48.1534 21.5475 49.8954C21.6645 51.7517 22.1826 53.4893 23.2694 55.0401C24.148 56.2944 26.2416 56.3411 27.1754 55.0823C27.5067 54.6351 27.8279 54.1676 28.0692 53.6687C28.6997 52.3665 29.2836 51.0413 29.886 49.725L29.9912 49.4842C29.9479 50.1075 29.8973 50.6548 29.8742 51.2027C29.8382 52.0583 29.8883 52.9088 30.1808 53.7227C30.4311 54.4191 30.8569 54.9394 31.6545 55.0311C32.2002 55.0935 32.635 54.8437 33.036 54.5271C33.6574 54.0361 34.1724 53.4238 34.5497 52.7276C35.619 50.7639 36.717 48.8121 37.6862 46.7989C38.7347 44.6214 39.6516 42.3804 40.6253 40.1659L40.7862 39.7733C41.0162 40.6772 41.1765 41.5626 41.4719 42.4007C41.815 43.3732 42.2397 44.3227 42.702 45.2458C42.9209 45.6817 42.8955 45.9647 42.5924 46.3303C41.3234 47.8603 40.0763 49.4089 38.8281 50.9557C38.5519 51.2972 38.2769 51.6448 38.0468 52.0177C37.9072 52.2533 37.8155 52.514 37.7768 52.785C37.7381 53.0345 37.7975 53.2893 37.9425 53.496C38.0875 53.7027 38.3069 53.8452 38.5547 53.8937C39.0548 54.0014 39.5677 54.0379 40.078 54.0023C41.82 53.874 43.4018 53.2626 44.8002 52.2264C46.612 50.8843 47.1936 49.0528 46.7549 46.8821C46.6362 46.2932 46.4264 45.7206 46.2222 45.153C46.1305 44.8971 46.1243 44.7176 46.2914 44.4791C47.7398 42.4108 48.9773 40.2165 50.1282 37.9716C50.1737 37.8832 50.2204 37.7949 50.3003 37.7004C50.6732 39.6411 51.2346 41.5114 52.2404 43.2084C51.7274 43.7029 51.2194 44.1512 50.7599 44.6451C49.7479 45.7329 48.8704 46.9142 48.4125 48.3547C48.2157 48.9757 48.0644 49.6069 48.1521 50.2701C48.2882 51.3 49.132 51.9694 50.145 51.7348C52.3129 51.2331 54.1844 50.2116 55.5518 48.402C56.472 47.1836 56.5559 45.8246 56.1705 44.4009C56.0648 44.0139 55.9394 43.6331 55.8044 43.1893C56.3393 43.0234 56.8607 42.8242 57.4002 42.7011C60.2009 42.0621 62.9712 42.1734 65.67 43.1848C67.2456 43.7754 68.5185 44.7638 69.2734 46.3185C70.1954 48.2192 69.6857 50.0226 67.8942 51.2241C67.7271 51.336 67.5359 51.4243 67.3975 51.5644C67.3532 51.6157 67.32 51.6758 67.3002 51.7407C67.2803 51.8056 67.2742 51.8739 67.2822 51.9412C67.294 52.0104 67.4768 52.0971 67.582 52.0959C68.1709 52.0914 68.6485 51.7826 69.1069 51.4654C70.2555 50.6706 71.0937 49.6012 71.2742 48.1933L71.3097 48.0876L71.2664 47.1707C71.2489 47.1178 71.2793 47.0655 71.2754 47.0256C71.0312 44.9753 69.936 43.3851 68.343 42.1386C66.498 40.6958 64.3195 40.1017 62.0155 40.0078C60.1469 39.9274 58.2806 40.2146 56.5227 40.8532C56.0181 41.0361 55.518 41.2526 55.0107 41.4568C54.9426 41.3336 54.8695 41.2155 54.8093 41.0934C54.2884 40.0269 53.6573 39.0077 53.5178 37.7848C53.4188 36.9163 53.2973 36.0489 53.5037 35.19C53.7023 34.3637 53.961 33.5514 54.2046 32.7364C54.33 32.3168 54.2417 32.0816 53.8412 31.8926C53.7017 31.823 53.5527 31.7741 53.3991 31.7475C52.4147 31.6046 51.4439 31.6862 50.4904 31.9635C50.1529 32.0619 49.9077 32.2509 49.8329 32.6244C49.7901 32.8388 49.7029 33.0441 49.6422 33.2556C49.393 34.1347 49.2164 35.0308 48.8136 35.8684C47.8045 37.9693 46.6525 39.9909 45.4735 41.9979C45.3458 42.2145 45.2114 42.4271 45.0505 42.6898C44.6365 41.8236 44.1949 41.0462 44.061 40.1349C43.9097 39.1044 43.7905 38.0756 44.047 37.053C44.2377 36.2903 44.4869 35.5416 44.7164 34.7889C44.8249 34.4312 44.7749 34.2433 44.4509 34.0549C44.2872 33.9598 44.1021 33.8754 43.9176 33.8479C42.9082 33.6941 41.8769 33.7785 40.906 34.0942C40.6005 34.1933 40.4402 34.3907 40.3469 34.7057C40.0724 35.6349 39.8384 36.5867 39.453 37.4704C37.8927 41.0479 36.2873 44.6068 34.6836 48.1652C34.3489 48.9082 33.9569 49.6254 33.5794 50.3488C33.4838 50.5322 33.3443 50.6936 33.225 50.8657C33.1294 50.7527 33.0923 50.6751 33.0929 50.5974C33.0957 50.1401 33.0411 49.6693 33.1283 49.2272C33.396 47.89 33.692 46.5587 34.0159 45.234C34.2803 44.1394 34.588 43.0549 34.881 41.9676C34.9795 41.6036 34.9812 41.2633 34.7196 40.9573C34.2803 40.4449 33.3623 40.3324 32.8178 40.7272L32.577 40.8634L32.6237 40.4753C32.7385 39.6433 32.7615 38.8142 32.5332 37.9946C32.2485 36.9731 31.5195 36.3853 30.4598 36.4179C29.9659 36.4331 29.4473 36.5175 28.99 36.6975C27.0668 37.4512 25.588 38.7861 24.3291 40.392C24.2124 40.5411 24.0678 40.6661 23.9033 40.7599C22.276 41.6621 20.6436 42.5531 19.0118 43.4475L17.1955 44.4426C16.7084 43.9779 16.2657 43.4959 15.7634 43.0869C14.2294 41.8359 12.6707 40.6159 11.1261 39.3789C9.75698 38.2826 8.43061 37.1407 7.41586 35.6889C6.66098 34.6089 6.17442 33.4271 6.12773 32.0917C6.06867 30.3902 6.5513 28.8354 7.41755 27.3881C8.52567 25.5364 10.0371 24.0502 11.6987 22.7042C13.4565 21.2811 15.3578 20.0728 17.3282 18.9697C20.085 17.4268 22.9206 16.0611 25.9609 15.1594C29.0783 14.2346 32.2412 13.7053 35.5037 14.0743C36.7862 14.2194 38.0316 14.5131 39.1752 15.1403C40.051 15.6201 40.7693 16.2484 41.1034 17.2305C41.433 18.1969 41.4229 19.1762 41.1945 20.1577C40.7305 22.1456 39.642 23.7842 38.2724 25.2484C36.0257 27.6486 33.2852 29.2826 30.1999 30.3621C28.426 30.9835 26.5803 31.3772 24.7071 31.5338C23.172 31.6626 21.669 31.5264 20.2155 30.9926C19.2531 30.6388 18.415 30.0977 17.7411 29.3124C17.6207 29.1718 17.4666 29.0194 17.2422 29.151C17.0222 29.2804 16.9834 29.4896 17.0571 29.7017C17.1803 30.0538 17.2939 30.4206 17.4857 30.7356C17.9678 31.5259 18.6709 32.0991 19.4449 32.5907C20.9316 33.5362 22.5932 33.8541 24.3162 33.9278C26.9307 34.0408 29.4816 33.6504 31.9965 32.949C35.587 31.9478 38.7089 30.1793 41.2125 27.3893C43.2972 25.0661 44.7861 22.4443 45.105 19.2786C45.2609 17.7334 45.0949 16.2197 44.3715 14.8101C43.5869 13.2829 42.3392 12.1472 40.8475 11.3648C38.6751 10.2257 36.3306 9.5625 33.9107 9.5625H31.4864C28.5557 9.5625 25.7224 10.4023 22.9684 11.4041C20.8838 12.1629 18.8397 13.0584 16.8552 14.0496C12.5335 16.209 8.5088 18.8128 5.20298 22.3931C3.55598 24.1768 2.16155 26.145 1.35942 28.4625C1.11732 29.1544 0.90877 29.8576 0.734484 30.5696M16.3939 50.8269C16.2066 53.3351 15.0698 55.3686 13.2119 57.0156C12.1667 57.9414 10.968 58.6007 9.57192 58.8324C9.06567 58.9163 8.54761 58.9365 8.05655 58.7267C7.35623 58.4274 7.1993 57.8059 7.1858 57.1438C7.16498 56.0886 7.53455 55.1346 8.04136 54.2267C8.70286 53.0432 9.67261 52.1409 10.7082 51.2983C12.3394 49.9702 14.109 48.8464 15.9214 47.7855L16.0581 47.7292C16.3382 48.7642 16.4715 49.7863 16.3939 50.8269ZM30.5453 39.9263C30.4131 40.7273 30.2477 41.5288 30.0137 42.3051C29.2049 44.9921 28.1659 47.5959 27.0426 50.1649C26.835 50.6402 26.533 51.0739 26.2703 51.5244C26.2256 51.5937 26.1721 51.6569 26.1111 51.7123C25.786 52.0335 25.4777 52.0166 25.3135 51.5964C25.1222 51.1082 25.0047 50.5856 24.9034 50.0687C24.8354 49.7216 24.8517 49.3571 24.8303 49.0016C24.8522 46.4737 25.6234 44.1765 26.9318 42.0379C27.4712 41.1559 28.0585 40.3155 28.9557 39.7575C29.2348 39.584 29.5368 39.4503 29.8529 39.3604C30.331 39.2259 30.6246 39.447 30.5453 39.9263ZM40.2 52.227L43.6701 48.1753C43.8147 49.68 41.257 52.6838 40.2 52.227ZM51.283 49.5006C51.0377 49.6412 50.7705 49.7424 50.5191 49.8724C50.289 49.9916 50.2131 49.8713 50.2064 49.6732C50.203 49.5362 50.2206 49.3994 50.2587 49.2677C50.7272 47.6151 51.5895 46.2043 52.8726 45.0568L52.9626 45.0107C53.5729 46.7179 52.8675 48.5927 51.283 49.5006Z" fill="#5F5050"/>
</svg>
