<svg width="72" height="72" viewBox="0 0 72 72" fill="none" xmlns="http://www.w3.org/2000/svg">
<path d="M35.2442 16.3079C23.6162 16.6775 20.1602 24.9839 19.3682 29.4839C20.4001 27.8159 23.6522 24.156 28.4402 24.156C34.0202 24.156 38.2682 30.384 40.8602 32.328C44.0092 34.6898 50.337 37.8083 58.6442 35.28C65.2682 33.264 68.3402 26.2319 69.0122 22.8959C65.8082 27.2519 60.9482 29.8684 54.9362 26.7839C50.7962 24.6599 47.7002 15.912 35.2442 16.3079Z" fill="#5F5050"/>
<path d="M18.792 36.072C7.16402 36.4416 3.70802 44.748 2.91602 49.248C3.94801 47.58 7.20002 43.9201 11.988 43.9201C17.568 43.9201 21.816 50.1481 24.408 52.0921C27.5571 54.4539 33.8849 57.5723 42.192 55.0441C48.816 53.0281 51.888 45.996 52.56 42.66C49.356 47.016 44.496 49.6324 38.484 46.548C34.344 44.424 31.248 35.6761 18.792 36.072Z" fill="#5F5050"/>
</svg>
