<svg width="72" height="72" viewBox="0 0 72 72" fill="none" xmlns="http://www.w3.org/2000/svg">
<path d="M2.05657 25.3367C2.05657 25.3367 0.353883 24.1042 2.3997 22.4606L7.16295 18.189C7.16295 18.189 8.52757 16.7495 9.96926 18.0045L53.9427 51.3765V67.3796C53.9427 67.3796 53.9208 69.8929 50.7044 69.6161L2.05657 25.3367Z" fill="#5F5050"/>
<path d="M13.3926 35.6506L2.05656 45.9798C2.05656 45.9798 0.892188 46.8478 2.05656 48.4014L7.31931 53.1978C7.31931 53.1978 8.56919 54.545 10.4176 53.0133L22.432 43.8794L13.3926 35.6506Z" fill="#4E4242"/>
<path d="M33.2912 35.7362L54.0773 19.8259L53.9428 3.90884C53.9428 3.90884 53.0552 0.434837 50.0936 2.2444L22.4321 27.4787L33.2912 35.7362Z" fill="#574949"/>
<path d="M50.7036 69.6358C51.9101 70.875 53.3738 70.4683 53.3738 70.4683L69.5721 62.4684C71.646 61.0509 71.3558 59.2931 71.3558 59.2931V11.5115C71.3558 9.41059 69.2115 8.68553 69.2115 8.68553L55.1709 1.90121C52.1036 0.000526786 50.0933 2.24434 50.0933 2.24434C50.0933 2.24434 52.6768 0.378527 53.9425 3.90934V67.0877C53.9425 67.5225 53.8502 67.9483 53.6657 68.333C53.2967 69.0823 52.4923 69.7786 50.5697 69.4867L50.7036 69.6358Z" fill="#675757"/>
</svg>
