<svg width="1440" height="260" viewBox="0 0 1440 260" fill="none" xmlns="http://www.w3.org/2000/svg">
<path fill-rule="evenodd" clip-rule="evenodd" d="M0 0L24 13C48 26 96 52 144 73.6667C192 95.3333 240 112.667 288 117C336 121.333 384 112.667 432 117C480 121.333 528 138.667 576 143C624 147.333 672 138.667 720 143C768 147.333 816 164.667 864 156C912 147.333 960 112.667 1008 104C1056 95.3333 1104 112.667 1152 121.333C1200 130 1248 130 1296 108.333C1344 86.6667 1392 43.3333 1416 21.6667L1440 0V260H1416C1392 260 1344 260 1296 260C1248 260 1200 260 1152 260C1104 260 1056 260 1008 260C960 260 912 260 864 260C816 260 768 260 720 260C672 260 624 260 576 260C528 260 480 260 432 260C384 260 336 260 288 260C240 260 192 260 144 260C96 260 48 260 24 260H0V0Z" fill="#746E6E"/>
</svg>
