<svg width="1440" height="106" viewBox="0 0 1440 106" fill="none" xmlns="http://www.w3.org/2000/svg">
<g filter="url(#filter0_d_111_71)">
<path fill-rule="evenodd" clip-rule="evenodd" d="M0 42.8477L26.2614 39.2165C53.9818 35.5854 106.505 28.323 160.486 31.9542C213.009 35.5854 266.991 50.11 319.514 50.11C373.495 50.11 426.018 35.5854 480 35.5854C533.982 35.5854 586.505 50.11 640.486 64.6346C693.009 79.1593 746.991 92.9577 799.514 82.0642C853.495 71.8969 906.018 35.5854 960 31.9542C1013.98 28.323 1066.5 57.3723 1120.49 75.5281C1173.01 92.9577 1226.99 100.22 1279.51 96.5888C1333.5 92.9577 1386.02 79.1593 1413.74 71.8969L1440 64.6346V-3.8648e-06H1413.74C1386.02 -3.8648e-06 1333.5 -3.8648e-06 1279.51 -3.8648e-06C1226.99 -3.8648e-06 1173.01 -3.8648e-06 1120.49 -3.8648e-06C1066.5 -3.8648e-06 1013.98 -3.8648e-06 960 -3.8648e-06C906.018 -3.8648e-06 853.495 -3.8648e-06 799.514 -3.8648e-06C746.991 -3.8648e-06 693.009 -3.8648e-06 640.486 -3.8648e-06C586.505 -3.8648e-06 533.982 -3.8648e-06 480 -3.8648e-06C426.018 -3.8648e-06 373.495 -3.8648e-06 319.514 -3.8648e-06C266.991 -3.8648e-06 213.009 -3.8648e-06 160.486 -3.8648e-06C106.505 -3.8648e-06 53.9818 -3.8648e-06 26.2614 -3.8648e-06H0V42.8477Z" fill="#FCF6EC"/>
</g>
<defs>
<filter id="filter0_d_111_71" x="-4" y="0" width="1448" height="105.5" filterUnits="userSpaceOnUse" color-interpolation-filters="sRGB">
<feFlood flood-opacity="0" result="BackgroundImageFix"/>
<feColorMatrix in="SourceAlpha" type="matrix" values="0 0 0 0 0 0 0 0 0 0 0 0 0 0 0 0 0 0 127 0" result="hardAlpha"/>
<feOffset dy="4"/>
<feGaussianBlur stdDeviation="2"/>
<feComposite in2="hardAlpha" operator="out"/>
<feColorMatrix type="matrix" values="0 0 0 0 0.988235 0 0 0 0 0.964706 0 0 0 0 0.92549 0 0 0 1 0"/>
<feBlend mode="normal" in2="BackgroundImageFix" result="effect1_dropShadow_111_71"/>
<feBlend mode="normal" in="SourceGraphic" in2="effect1_dropShadow_111_71" result="shape"/>
</filter>
</defs>
</svg>
