<svg width="509" height="574" viewBox="0 0 509 574" fill="none" xmlns="http://www.w3.org/2000/svg">
<path fill-rule="evenodd" clip-rule="evenodd" d="M371.257 48.5122C431.339 40.6315 489.839 -19.1308 544.872 6.22766C598.498 30.9378 592.859 110.86 620.165 163.205C646.077 212.878 713.086 252.032 701.712 306.889C689.607 365.273 606.239 374.998 566.951 419.855C537.615 453.348 538.246 507.647 502.557 534.27C465.852 561.649 416.71 560.253 371.257 565.833C320.308 572.089 270.278 578.912 219.918 568.974C154.852 556.133 77.8565 552.069 36.9652 499.862C-3.65745 447.997 -10.3311 367.85 14.6404 306.889C39.283 246.732 124.12 238.415 164.827 187.726C196.78 147.936 179.779 77.1007 222.091 48.5664C264.027 20.2852 321.103 55.0909 371.257 48.5122Z" fill="#979191"/>
</svg>
