<svg width="610" height="192" viewBox="0 0 610 192" fill="none" xmlns="http://www.w3.org/2000/svg">
<path fill-rule="evenodd" clip-rule="evenodd" d="M193.282 -319.904C273.316 -338.445 357.349 -381.446 432.887 -351.947C510.446 -321.659 543.014 -242.004 571.1 -172.36C599.747 -101.322 629.174 -21.6986 593.775 47.0107C559.267 113.992 474.642 152.958 393.24 172.871C326.636 189.165 262.434 142.694 193.282 144.984C119.285 147.434 50.5082 210.695 -18.0856 186.493C-87.4922 162.004 -115.19 89.4136 -138.934 27.7662C-162.847 -34.322 -187.453 -105.252 -152.862 -163.432C-119.219 -220.017 -33.5394 -229.55 31.5481 -258.973C84.979 -283.126 135.071 -306.419 193.282 -319.904Z" fill="url(#paint0_linear_11_270)"/>
<defs>
<linearGradient id="paint0_linear_11_270" x1="-51" y1="-85" x2="220" y2="76.5" gradientUnits="userSpaceOnUse">
<stop stop-color="#72B01D"/>
<stop offset="1" stop-color="#A7D963"/>
</linearGradient>
</defs>
</svg>
