<svg width="956" height="1555" viewBox="0 0 956 1555" fill="none" xmlns="http://www.w3.org/2000/svg">
<path fill-rule="evenodd" clip-rule="evenodd" d="M614.755 949.7C679.152 940.696 742.337 969.02 797.891 997.858C854.191 1027.08 894.561 1070.11 933.443 1115.13C981.186 1170.41 1058.67 1222.25 1050.39 1290.23C1042.13 1357.96 951.891 1393.5 893.742 1440.88C840.951 1483.89 798.934 1551.66 725.537 1554.89C650.53 1558.18 602.511 1489.29 538.326 1456.48C493.277 1433.45 449.595 1413.75 404.506 1390.78C336.429 1356.09 216.692 1353.32 205.735 1287.01C194.753 1220.56 309.704 1190.68 363.217 1140.92C398.584 1108.04 427.862 1073.86 466.971 1044.13C513.815 1008.52 552.468 958.409 614.755 949.7Z" fill="url(#paint0_linear_22_421)"/>
<g filter="url(#filter0_f_22_421)">
<path fill-rule="evenodd" clip-rule="evenodd" d="M481.677 50.0621C628.45 48.3807 777.611 80.7063 893.02 164.603C1005.97 246.714 1122.39 369.967 1102.84 501.614C1082.85 636.111 896.485 681.192 800.958 784.261C753.758 835.188 731.795 897.09 687.245 950.02C622.352 1027.12 579.062 1125.74 481.677 1163.59C359.879 1210.93 184.455 1270.33 95.4453 1180.03C-0.0740051 1083.12 113.846 927.93 120.263 796.924C123.873 723.219 129.821 654.673 124.787 581.039C115.241 441.421 -2.18537 292.751 77.6697 173.944C154.459 59.698 336.253 51.728 481.677 50.0621Z" fill="url(#paint1_linear_22_421)"/>
</g>
<path fill-rule="evenodd" clip-rule="evenodd" d="M481.677 50.0621C628.45 48.3807 777.611 80.7063 893.02 164.603C1005.97 246.714 1122.39 369.967 1102.84 501.614C1082.85 636.111 896.485 681.192 800.958 784.261C753.758 835.188 731.795 897.09 687.245 950.02C622.352 1027.12 579.062 1125.74 481.677 1163.59C359.879 1210.93 184.455 1270.33 95.4453 1180.03C-0.0740051 1083.12 113.846 927.93 120.263 796.924C123.873 723.219 129.821 654.673 124.787 581.039C115.241 441.421 -2.18537 292.751 77.6697 173.944C154.459 59.698 336.253 51.728 481.677 50.0621Z" fill="url(#paint2_linear_22_421)"/>
<path fill-rule="evenodd" clip-rule="evenodd" d="M822.033 623.552C889.829 599.727 953.534 675.086 1008.9 718.393C1058.6 757.266 1092.08 807.258 1123.98 859.721C1158.71 916.836 1223.45 975.079 1203.14 1037.85C1182.27 1102.35 1090.53 1116.91 1029.09 1153.05C985.675 1178.59 946.378 1211.13 895.589 1218.77C847.969 1225.95 804.196 1199.54 756.303 1194.14C695.846 1187.32 625.279 1218.06 577.698 1182.91C530.799 1148.27 532.443 1081.56 528.906 1026.16C525.593 974.264 513.312 930.673 549 890.5C582.91 840.234 554.019 810.293 592 774C691.051 720.508 769.5 683 822.033 623.552Z" fill="#36AA72"/>
<path fill-rule="evenodd" clip-rule="evenodd" d="M900.282 231.686C967.022 227.331 1025.98 159.802 1089.85 179.639C1153.81 199.505 1190.57 268.432 1216.9 330.018C1242.83 390.695 1255.82 459.839 1236.61 522.967C1218.41 582.759 1163.46 620.868 1116 661.531C1074.8 696.824 1033.3 739.127 979.228 743.476C927.502 747.637 890.032 692.394 838.851 683.825C776.473 673.382 702.361 728.434 653.023 688.863C606.076 651.21 640.6 572.526 626.99 513.904C611.609 447.655 547.399 387.687 568.055 322.888C588.518 258.692 660.998 221.217 725.973 203.38C783.91 187.475 840.329 235.597 900.282 231.686Z" fill="url(#paint3_linear_22_421)"/>
<path fill-rule="evenodd" clip-rule="evenodd" d="M728.942 456.555C791.662 432.713 850.597 508.128 901.821 551.468C947.799 590.37 978.772 640.399 1008.28 692.901C1040.41 750.059 1100.3 808.345 1081.51 871.164C1062.21 935.715 977.338 950.28 920.495 986.453C880.331 1012.01 843.977 1044.57 796.991 1052.22C752.936 1059.4 712.441 1032.97 668.134 1027.57C612.203 1020.74 546.92 1051.51 502.902 1016.34C459.515 981.666 461.035 914.903 457.764 859.461C454.699 807.529 451.746 749.161 484.762 708.958C516.834 669.905 588.812 693.419 623.949 657.099C677.498 601.747 656.953 483.922 728.942 456.555Z" fill="url(#paint4_linear_22_421)"/>
<defs>
<filter id="filter0_f_22_421" x="0" y="0" width="1155" height="1277" filterUnits="userSpaceOnUse" color-interpolation-filters="sRGB">
<feFlood flood-opacity="0" result="BackgroundImageFix"/>
<feBlend mode="normal" in="SourceGraphic" in2="BackgroundImageFix" result="shape"/>
<feGaussianBlur stdDeviation="25" result="effect1_foregroundBlur_22_421"/>
</filter>
<linearGradient id="paint0_linear_22_421" x1="711" y1="962" x2="628" y2="1555" gradientUnits="userSpaceOnUse">
<stop stop-color="#04584F"/>
<stop offset="1" stop-color="#B6D7D3"/>
</linearGradient>
<linearGradient id="paint1_linear_22_421" x1="511.5" y1="350" x2="529" y2="1322.5" gradientUnits="userSpaceOnUse">
<stop stop-color="#72B01D"/>
<stop offset="1" stop-color="#3EAA9E"/>
</linearGradient>
<linearGradient id="paint2_linear_22_421" x1="511.5" y1="350" x2="529" y2="1322.5" gradientUnits="userSpaceOnUse">
<stop stop-color="#72B01D"/>
<stop offset="1" stop-color="#3EAA9E"/>
</linearGradient>
<linearGradient id="paint3_linear_22_421" x1="987" y1="401" x2="721" y2="654" gradientUnits="userSpaceOnUse">
<stop stop-color="#6BA51B"/>
<stop offset="1" stop-color="#87DE0F" stop-opacity="0"/>
</linearGradient>
<linearGradient id="paint4_linear_22_421" x1="899" y1="490.5" x2="676.5" y2="1030.5" gradientUnits="userSpaceOnUse">
<stop stop-color="#649B19"/>
<stop offset="0.463542" stop-color="#599902" stop-opacity="0.5"/>
<stop offset="1" stop-color="#589900" stop-opacity="0"/>
</linearGradient>
</defs>
</svg>
