<svg width="594" height="788" viewBox="0 0 594 788" fill="none" xmlns="http://www.w3.org/2000/svg">
<path fill-rule="evenodd" clip-rule="evenodd" d="M298.031 286.668C347.403 293.55 388.028 328.234 423.509 363.249C453.795 393.139 460.233 438.185 485.928 472.102C516.453 512.394 573.719 532.142 588.162 580.584C603.227 631.11 581.479 684.416 564.07 734.182C543.83 792.041 533.247 865.549 478.698 893.509C423.738 921.681 359.661 874.533 298.031 870.548C241.293 866.879 182.893 892.752 130.367 870.986C75.8001 848.373 24.7562 805.281 5.65412 749.388C-13.0676 694.608 19.7467 637.347 31.1192 580.584C40.3354 534.585 46.4022 489.278 66.2813 446.784C87.5406 401.34 109.311 353.725 150.588 325.206C193.106 295.831 246.846 279.533 298.031 286.668Z" fill="#A8A2A2"/>
<g filter="url(#filter0_d_52_56)">
<path fill-rule="evenodd" clip-rule="evenodd" d="M108.519 33.7628C154.328 39.6187 201.359 43.2985 240.296 68.1326C278.461 92.4747 309.105 129.083 324.633 171.603C339.148 211.349 330.793 254.671 323.648 296.377C317.399 332.847 294.591 362.764 285.726 398.687C272.652 451.671 292.348 514.044 259.233 557.421C224.739 602.606 164.748 622.457 108.519 630.812C47.9226 639.815 -17.8678 637.795 -70.4788 606.41C-122.898 575.138 -169.481 521.506 -176.371 460.858C-183.224 400.538 -100.451 356.857 -105.701 296.377C-111.796 226.149 -222.373 183.206 -206.43 114.541C-192.465 54.3963 -104.068 47.097 -44.2592 31.7572C5.92947 18.8848 57.1239 27.1928 108.519 33.7628Z" fill="#B9B4B4"/>
</g>
<defs>
<filter id="filter0_d_52_56" x="-233" y="0" width="590.615" height="660.468" filterUnits="userSpaceOnUse" color-interpolation-filters="sRGB">
<feFlood flood-opacity="0" result="BackgroundImageFix"/>
<feColorMatrix in="SourceAlpha" type="matrix" values="0 0 0 0 0 0 0 0 0 0 0 0 0 0 0 0 0 0 127 0" result="hardAlpha"/>
<feOffset/>
<feGaussianBlur stdDeviation="12.5"/>
<feComposite in2="hardAlpha" operator="out"/>
<feColorMatrix type="matrix" values="0 0 0 0 0.72549 0 0 0 0 0.705882 0 0 0 0 0.705882 0 0 0 1 0"/>
<feBlend mode="normal" in2="BackgroundImageFix" result="effect1_dropShadow_52_56"/>
<feBlend mode="normal" in="SourceGraphic" in2="effect1_dropShadow_52_56" result="shape"/>
</filter>
</defs>
</svg>
