<svg width="128" height="128" viewBox="0 0 128 128" fill="none" xmlns="http://www.w3.org/2000/svg">
<path d="M19.037 113.876L9.032 1.66089H118.968L108.952 113.859L63.933 126.339L19.037 113.876Z" fill="#5F5050"/>
<path d="M64 116.8L100.378 106.714L108.937 10.8359H64V116.8Z" fill="#705E5E"/>
<path d="M64 52.4551H45.788L44.53 38.3611H64V24.5991H29.489L29.819 28.2911L33.201 66.2181H64V52.4551ZM64 88.1981L63.939 88.2151L48.612 84.0751L47.633 73.1001H33.816L35.744 94.7091L63.937 102.535L64 102.518V88.1981Z" fill="#EBEBEB"/>
<path d="M63.952 52.4551V66.2181H80.899L79.302 84.0671L63.952 88.2101V102.529L92.167 94.7091L92.374 92.3841L95.608 56.1511L95.943 52.4551H92.235H63.952ZM63.952 24.5991V38.3611H97.196L97.472 35.2691L98.1 28.2911L98.429 24.5991H63.952Z" fill="white"/>
</svg>
