<svg width="129" height="129" viewBox="0 0 129 129" fill="none" xmlns="http://www.w3.org/2000/svg">
<path d="M64.4 75.8C70.696 75.8 75.8 70.6961 75.8 64.4C75.8 58.104 70.696 53 64.4 53C58.104 53 53 58.104 53 64.4C53 70.6961 58.104 75.8 64.4 75.8Z" fill="#5F5050"/>
<path d="M107.7 45.6C105.5 44.8 103.2 44 100.8 43.3C101.4 40.9 101.9 38.5 102.3 36.2C104.4 23 102.1 13.7 95.7 10.1C93.8 9 91.7 8.5 89.3 8.5C82.3 8.5 73.4 13.7 64.4 22.4C55.4 13.7 46.5 8.5 39.5 8.5C37.1 8.5 35 9 33.1 10.1C26.7 13.8 24.4 23.1 26.5 36.2C26.9 38.5 27.4 40.9 28 43.3C25.6 44 23.3 44.7 21.1 45.6C8.60002 50.4 1.80002 57 1.80002 64.4C1.80002 71.8 8.70002 78.4 21.1 83.2C23.3 84 25.6 84.8 28 85.5C27.4 87.9 26.9 90.3 26.5 92.6C24.4 105.8 26.7 115.1 33.1 118.7C35 119.8 37.1 120.3 39.5 120.3C46.6 120.3 55.5 115.1 64.4 106.4C73.4 115.1 82.3 120.3 89.3 120.3C91.7 120.3 93.8 119.8 95.7 118.7C102.1 115 104.4 105.7 102.3 92.6C101.9 90.3 101.4 87.9 100.8 85.5C103.2 84.8 105.5 84.1 107.7 83.2C120.2 78.4 127 71.8 127 64.4C127 57 120.2 50.4 107.7 45.6ZM92.9 15.1C97 17.5 98.4 24.9 96.7 35.4C96.4 37.5 95.9 39.7 95.3 42C90.1 40.8 84.6 40 78.8 39.5C75.4 34.7 71.9 30.4 68.4 26.5C75.8 19.2 83.3 14.2 89.4 14.2C90.7 14.2 91.9 14.5 92.9 15.1ZM81.7 74.4C79.9 77.6 77.8 80.8 75.6 84C71.9 84.3 68.2 84.4 64.4 84.4C60.5 84.4 56.8 84.3 53.2 84C51 80.8 49 77.6 47.2 74.4C45.3 71.1 43.5 67.7 41.9 64.4C43.5 61.1 45.3 57.7 47.2 54.4C49 51.2 51.1 48 53.3 44.8C57 44.5 60.7 44.4 64.5 44.4C68.4 44.4 72.1 44.5 75.7 44.8C77.9 48 79.9 51.2 81.7 54.4C83.6 57.7 85.4 61.1 87 64.4C85.3 67.7 83.6 71 81.7 74.4ZM90 71.1C91.5 74.6 92.7 78 93.8 81.4C90.4 82.2 86.8 82.8 83 83.3C84.2 81.4 85.5 79.4 86.6 77.3C87.8 75.2 88.9 73.1 90 71.1ZM64.4 98.2C62 95.6 59.7 92.8 57.5 89.9C59.8 90 62.1 90.1 64.4 90.1C66.7 90.1 69 90 71.3 89.9C69.1 92.8 66.8 95.6 64.4 98.2ZM45.8 83.2C42 82.7 38.4 82.1 35 81.3C36.1 78 37.3 74.5 38.8 71C39.9 73 41 75.1 42.2 77.1C43.4 79.3 44.6 81.2 45.8 83.2ZM38.8 57.7C37.3 54.2 36.1 50.8 35 47.4C38.4 46.6 42 46 45.8 45.5C44.6 47.4 43.3 49.4 42.2 51.5C41 53.6 39.9 55.7 38.8 57.7ZM64.4 30.6C66.8 33.2 69.1 36 71.3 38.9C69 38.8 66.7 38.7 64.4 38.7C62.1 38.7 59.8 38.8 57.5 38.9C59.7 36 62 33.2 64.4 30.6ZM86.6 51.6L83 45.6C86.8 46.1 90.4 46.7 93.8 47.5C92.7 50.8 91.5 54.3 90 57.8C88.9 55.7 87.8 53.6 86.6 51.6ZM32.1 35.4C30.4 24.9 31.8 17.5 35.9 15.1C36.9 14.5 38.1 14.2 39.4 14.2C45.4 14.2 52.9 19.1 60.4 26.5C56.9 30.3 53.4 34.7 50 39.5C44.2 40 38.7 40.9 33.5 42C32.9 39.7 32.5 37.5 32.1 35.4ZM7.40002 64.4C7.40002 59.7 13.1 54.7 23.1 51C25.1 50.2 27.3 49.5 29.5 48.9C31.1 53.9 33.1 59.2 35.5 64.5C33.1 69.8 31 75 29.5 80C15.7 76 7.40002 70 7.40002 64.4ZM35.9 113.7C31.8 111.3 30.4 103.9 32.1 93.4C32.4 91.3 32.9 89.1 33.5 86.8C38.7 88 44.2 88.8 50 89.3C53.4 94.1 56.9 98.4 60.4 102.3C53 109.6 45.5 114.6 39.4 114.6C38.1 114.6 36.9 114.3 35.9 113.7ZM96.7 93.4C98.4 103.9 97 111.3 92.9 113.7C91.9 114.3 90.7 114.6 89.4 114.6C83.4 114.6 75.9 109.7 68.4 102.3C71.9 98.5 75.4 94.1 78.8 89.3C84.6 88.8 90.1 87.9 95.3 86.8C95.9 89.1 96.3 91.3 96.7 93.4ZM105.7 77.8C103.7 78.6 101.5 79.3 99.3 79.9C97.7 74.9 95.7 69.6 93.3 64.3C95.7 59 97.8 53.8 99.3 48.8C113.1 52.8 121.4 58.8 121.4 64.4C121.4 69.1 115.6 74.1 105.7 77.8Z" fill="#5F5050"/>
</svg>
