<svg width="128" height="128" viewBox="0 0 128 128" fill="none" xmlns="http://www.w3.org/2000/svg">
<path d="M62.656 28.9919C41.984 29.6489 35.84 44.4159 34.432 52.4159C36.2666 49.4505 42.048 42.944 50.56 42.944C60.48 42.944 68.032 54.016 72.64 57.472C78.2383 61.6708 89.4877 67.2147 104.256 62.72C116.032 59.136 121.493 46.6345 122.688 40.7039C116.992 48.4479 108.352 53.0993 97.664 47.6159C90.304 43.8399 84.8 28.288 62.656 28.9919Z" fill="#5F5050"/>
<path d="M33.408 64.1279C12.736 64.7849 6.59202 79.5519 5.18402 87.5519C7.01868 84.5865 12.8 78.08 21.312 78.08C31.232 78.08 38.784 89.152 43.392 92.608C48.9904 96.8068 60.2398 102.351 75.008 97.856C86.784 94.272 92.2454 81.7705 93.44 75.8399C87.744 83.5839 79.104 88.2353 68.416 82.7519C61.056 78.9759 55.552 63.424 33.408 64.1279Z" fill="#5F5050"/>
</svg>
