<svg width="128" height="128" viewBox="0 0 128 128" fill="none" xmlns="http://www.w3.org/2000/svg">
<path d="M3.65603 45.0431C3.65603 45.0431 0.629031 42.8521 4.26603 39.9301L12.734 32.3361C12.734 32.3361 15.16 29.7771 17.723 32.0081L95.898 91.3361V119.786C95.898 119.786 95.859 124.254 90.141 123.762L3.65603 45.0431Z" fill="#5F5050"/>
<path d="M23.809 63.3789L3.65596 81.7419C3.65596 81.7419 1.58596 83.2849 3.65596 86.0469L13.012 94.5739C13.012 94.5739 15.234 96.9689 18.52 94.2459L39.879 78.0079L23.809 63.3789Z" fill="#4E4242"/>
<path d="M59.184 63.5309L96.137 35.2459L95.898 6.94893C95.898 6.94893 94.32 0.772934 89.055 3.98993L39.879 48.8509L59.184 63.5309Z" fill="#574949"/>
<path d="M90.1401 123.797C92.2851 126 94.8871 125.277 94.8871 125.277L123.684 111.055C127.371 108.535 126.855 105.41 126.855 105.41V20.4649C126.855 16.7299 123.043 15.4409 123.043 15.4409L98.0821 3.37994C92.6291 0.000936508 89.0551 3.98994 89.0551 3.98994C89.0551 3.98994 93.6481 0.672936 95.8981 6.94994V119.267C95.8981 120.04 95.7341 120.797 95.4061 121.481C94.7501 122.813 93.3201 124.051 89.9021 123.532L90.1401 123.797Z" fill="#675757"/>
</svg>
