<svg width="1928" height="138" viewBox="0 0 1928 138" fill="none" xmlns="http://www.w3.org/2000/svg">
<g filter="url(#filter0_d_17_405)">
<path fill-rule="evenodd" clip-rule="evenodd" d="M4 57.1302L39.0152 52.2887C75.9757 47.4471 146.006 37.764 217.982 42.6056C288.012 47.4471 359.988 66.8133 430.018 66.8133C501.994 66.8133 572.024 47.4471 644 47.4471C715.976 47.4471 786.006 66.8133 857.982 86.1795C928.012 105.546 999.988 123.944 1070.02 109.419C1141.99 95.8626 1212.02 47.4471 1284 42.6056C1355.98 37.764 1426.01 76.4964 1497.98 100.704C1568.01 123.944 1639.99 133.627 1710.02 128.785C1781.99 123.944 1852.02 105.546 1888.98 95.8626L1924 86.1795V-2.48567e-06H1888.98C1852.02 -2.48567e-06 1781.99 -2.48567e-06 1710.02 -2.48567e-06C1639.99 -2.48567e-06 1568.01 -2.48567e-06 1497.98 -2.48567e-06C1426.01 -2.48567e-06 1355.98 -2.48567e-06 1284 -2.48567e-06C1212.02 -2.48567e-06 1141.99 -2.48567e-06 1070.02 -2.48567e-06C999.988 -2.48567e-06 928.012 -2.48567e-06 857.982 -2.48567e-06C786.006 -2.48567e-06 715.976 -2.48567e-06 644 -2.48567e-06C572.024 -2.48567e-06 501.994 -2.48567e-06 430.018 -2.48567e-06C359.988 -2.48567e-06 288.012 -2.48567e-06 217.982 -2.48567e-06C146.006 -2.48567e-06 75.9757 -2.48567e-06 39.0152 -2.48567e-06H4V57.1302Z" fill="#FCF6EC"/>
<path fill-rule="evenodd" clip-rule="evenodd" d="M4 57.1302L39.0152 52.2887C75.9757 47.4471 146.006 37.764 217.982 42.6056C288.012 47.4471 359.988 66.8133 430.018 66.8133C501.994 66.8133 572.024 47.4471 644 47.4471C715.976 47.4471 786.006 66.8133 857.982 86.1795C928.012 105.546 999.988 123.944 1070.02 109.419C1141.99 95.8626 1212.02 47.4471 1284 42.6056C1355.98 37.764 1426.01 76.4964 1497.98 100.704C1568.01 123.944 1639.99 133.627 1710.02 128.785C1781.99 123.944 1852.02 105.546 1888.98 95.8626L1924 86.1795V-2.48567e-06H1888.98C1852.02 -2.48567e-06 1781.99 -2.48567e-06 1710.02 -2.48567e-06C1639.99 -2.48567e-06 1568.01 -2.48567e-06 1497.98 -2.48567e-06C1426.01 -2.48567e-06 1355.98 -2.48567e-06 1284 -2.48567e-06C1212.02 -2.48567e-06 1141.99 -2.48567e-06 1070.02 -2.48567e-06C999.988 -2.48567e-06 928.012 -2.48567e-06 857.982 -2.48567e-06C786.006 -2.48567e-06 715.976 -2.48567e-06 644 -2.48567e-06C572.024 -2.48567e-06 501.994 -2.48567e-06 430.018 -2.48567e-06C359.988 -2.48567e-06 288.012 -2.48567e-06 217.982 -2.48567e-06C146.006 -2.48567e-06 75.9757 -2.48567e-06 39.0152 -2.48567e-06H4V57.1302Z" stroke="black"/>
</g>
<defs>
<filter id="filter0_d_17_405" x="0" y="0" width="1928" height="138" filterUnits="userSpaceOnUse" color-interpolation-filters="sRGB">
<feFlood flood-opacity="0" result="BackgroundImageFix"/>
<feColorMatrix in="SourceAlpha" type="matrix" values="0 0 0 0 0 0 0 0 0 0 0 0 0 0 0 0 0 0 127 0" result="hardAlpha"/>
<feOffset dy="4"/>
<feGaussianBlur stdDeviation="2"/>
<feComposite in2="hardAlpha" operator="out"/>
<feColorMatrix type="matrix" values="0 0 0 0 0.988235 0 0 0 0 0.964706 0 0 0 0 0.92549 0 0 0 1 0"/>
<feBlend mode="normal" in2="BackgroundImageFix" result="effect1_dropShadow_17_405"/>
<feBlend mode="normal" in="SourceGraphic" in2="effect1_dropShadow_17_405" result="shape"/>
</filter>
</defs>
</svg>
