<svg width="1920" height="130" viewBox="0 0 1920 130" fill="none" xmlns="http://www.w3.org/2000/svg">
<path fill-rule="evenodd" clip-rule="evenodd" d="M0 57.1302L35.0152 52.2887C71.9757 47.4471 142.006 37.764 213.982 42.6056C284.012 47.4471 355.988 66.8133 426.018 66.8133C497.994 66.8133 568.024 47.4471 640 47.4471C711.976 47.4471 782.006 66.8133 853.982 86.1795C924.012 105.546 995.988 123.944 1066.02 109.419C1137.99 95.8626 1208.02 47.4471 1280 42.6056C1351.98 37.764 1422.01 76.4964 1493.98 100.704C1564.01 123.944 1635.99 133.627 1706.02 128.785C1777.99 123.944 1848.02 105.546 1884.98 95.8626L1920 86.1795V0H1884.98C1848.02 0 1777.99 0 1706.02 0C1635.99 0 1564.01 0 1493.98 0C1422.01 0 1351.98 0 1280 0C1208.02 0 1137.99 0 1066.02 0C995.988 0 924.012 0 853.982 0C782.006 0 711.976 0 640 0C568.024 0 497.994 0 426.018 0C355.988 0 284.012 0 213.982 0C142.006 0 71.9757 0 35.0152 0H0V57.1302Z" fill="#FCF6EC"/>
</svg>
