<svg width="1920" height="388" viewBox="0 0 1920 388" fill="none" xmlns="http://www.w3.org/2000/svg">
<path fill-rule="evenodd" clip-rule="evenodd" d="M0 0L32 19.4C64 38.8 128 77.6 192 109.933C256 142.267 320 168.133 384 174.6C448 181.067 512 168.133 576 174.6C640 181.067 704 206.933 768 213.4C832 219.867 896 206.933 960 213.4C1024 219.867 1088 245.733 1152 232.8C1216 219.867 1280 168.133 1344 155.2C1408 142.267 1472 168.133 1536 181.067C1600 194 1664 194 1728 161.667C1792 129.333 1856 64.6667 1888 32.3333L1920 0V388H1888C1856 388 1792 388 1728 388C1664 388 1600 388 1536 388C1472 388 1408 388 1344 388C1280 388 1216 388 1152 388C1088 388 1024 388 960 388C896 388 832 388 768 388C704 388 640 388 576 388C512 388 448 388 384 388C320 388 256 388 192 388C128 388 64 388 32 388H0V0Z" fill="#746E6E"/>
</svg>
