<svg width="1920" height="247" viewBox="0 0 1920 247" fill="none" xmlns="http://www.w3.org/2000/svg">
<path fill-rule="evenodd" clip-rule="evenodd" d="M0 98.8L80 123.5C160 148.2 320 197.6 480 205.833C640 214.067 800 181.133 960 172.9C1120 164.667 1280 181.133 1440 197.6C1600 214.067 1760 230.533 1840 238.767L1920 247V6.67572e-06H1840C1760 6.67572e-06 1600 6.67572e-06 1440 6.67572e-06C1280 6.67572e-06 1120 6.67572e-06 960 6.67572e-06C800 6.67572e-06 640 6.67572e-06 480 6.67572e-06C320 6.67572e-06 160 6.67572e-06 80 6.67572e-06H0V98.8Z" fill="#FCF6EC"/>
</svg>
